<svg width="201" height="202" viewBox="0 0 201 202" fill="none" xmlns="http://www.w3.org/2000/svg">
<rect width="200" height="201" fill="white"/>
<rect x="92.748" y="77.0001" width="40" height="9.56684" rx="4.78342" transform="rotate(4.48557 92.748 77.0001)" fill="#fce7d1"/>
<rect x="54" y="131.842" width="40" height="9.56684" rx="4.78342" transform="rotate(-46.1402 54 131.842)" fill="#fce7d1"/>
<rect x="147.338" y="136.736" width="40" height="9.56684" rx="4.78342" transform="rotate(-42.5502 147.338 136.736)" fill="#fce7d1"/>
<rect x="159" y="182.275" width="40" height="9.56684" rx="4.78342" transform="rotate(-10.4783 159 182.275)" fill="#fce7d1"/>
<rect x="122.63" y="186.396" width="40" height="9.56684" rx="4.78342" transform="rotate(-124.454 122.63 186.396)" fill="#fce7d1"/>
<rect x="53.5667" y="201.138" width="40" height="9.56684" rx="4.78342" transform="rotate(-116.051 53.5667 201.138)" fill="#fce7d1"/>
<rect x="35.4648" y="33.9821" width="40" height="9.56684" rx="4.78342" transform="rotate(-152.452 35.4648 33.9821)" fill="#fce7d1"/>
<rect x="157" y="76.9259" width="40" height="9.56684" rx="4.78342" transform="rotate(-86.507 157 76.9259)" fill="#fce7d1"/>
<rect x="89" y="51.2687" width="40" height="9.56684" rx="4.78342" transform="rotate(-39.1766 89 51.2687)" fill="#fce7d1"/>
<rect x="63" y="63.9943" width="40" height="9.56684" rx="4.78342" transform="rotate(-89.0295 63 63.9943)" fill="#fce7d1"/>
<rect x="20.1357" y="113.775" width="40" height="9.56684" rx="4.78342" transform="rotate(-95.9347 20.1357 113.775)" fill="#fce7d1"/>
</svg>
