<svg width="246" height="285" viewBox="0 0 246 285" fill="none" xmlns="http://www.w3.org/2000/svg">
<rect y="121.298" width="130.433" height="201.763" rx="15" transform="rotate(-35.8 0 121.298)" fill="#0C4FB3"/>
<rect x="120.746" width="130.433" height="201.763" rx="15" transform="rotate(16.2 120.746 0)" fill="#0CB34F"/>
<rect x="40" y="31.0457" width="130.433" height="201.763" rx="15" fill="white"/>
<path d="M86.3139 102.87V105.823H77.7006V102.87H86.3139ZM79.0014 88.7607V105.823H75.1811V88.7607H79.0014ZM93.978 106.058C92.9702 106.058 92.0678 105.897 91.2709 105.577C90.4741 105.257 89.7983 104.815 89.2436 104.253C88.6967 103.683 88.2788 103.026 87.9897 102.284C87.7006 101.542 87.5561 100.749 87.5561 99.9053V99.46C87.5561 98.5146 87.6889 97.6436 87.9545 96.8467C88.2202 96.0498 88.6069 95.3584 89.1147 94.7725C89.6303 94.1787 90.2631 93.7217 91.0131 93.4014C91.7631 93.0732 92.6186 92.9092 93.5795 92.9092C94.478 92.9092 95.2788 93.0576 95.9819 93.3545C96.685 93.6436 97.2788 94.0615 97.7631 94.6084C98.2475 95.1475 98.6147 95.7998 98.8647 96.5654C99.1225 97.3232 99.2514 98.1748 99.2514 99.1201V100.62H89.0327V98.2646H95.6655V97.9834C95.6655 97.5381 95.5834 97.1475 95.4194 96.8115C95.2631 96.4756 95.0288 96.2178 94.7163 96.0381C94.4116 95.8506 94.0248 95.7568 93.5561 95.7568C93.1108 95.7568 92.7397 95.8506 92.4428 96.0381C92.1459 96.2256 91.9077 96.4912 91.728 96.835C91.5561 97.1709 91.4311 97.5654 91.353 98.0186C91.2748 98.4639 91.2358 98.9443 91.2358 99.46V99.9053C91.2358 100.397 91.3022 100.847 91.435 101.253C91.5678 101.659 91.7631 102.007 92.0209 102.296C92.2788 102.585 92.5913 102.812 92.9584 102.976C93.3256 103.14 93.7436 103.222 94.2123 103.222C94.7905 103.222 95.3413 103.112 95.8647 102.894C96.3881 102.667 96.8413 102.315 97.2241 101.839L98.935 103.796C98.6772 104.171 98.3139 104.534 97.8452 104.886C97.3842 105.229 96.8295 105.511 96.1811 105.729C95.5327 105.948 94.7983 106.058 93.978 106.058ZM107.748 102.8V97.3623C107.748 96.9795 107.689 96.6514 107.572 96.3779C107.455 96.1045 107.271 95.8896 107.021 95.7334C106.771 95.5771 106.447 95.499 106.048 95.499C105.712 95.499 105.419 95.5576 105.169 95.6748C104.927 95.792 104.74 95.96 104.607 96.1787C104.482 96.3975 104.419 96.667 104.419 96.9873H100.763C100.763 96.417 100.892 95.8857 101.15 95.3936C101.408 94.9014 101.775 94.4678 102.251 94.0928C102.736 93.7178 103.314 93.4287 103.986 93.2256C104.658 93.0146 105.412 92.9092 106.248 92.9092C107.24 92.9092 108.123 93.0771 108.896 93.4131C109.677 93.7412 110.294 94.2373 110.748 94.9014C111.201 95.5576 111.427 96.3857 111.427 97.3857V102.694C111.427 103.46 111.47 104.062 111.556 104.499C111.65 104.929 111.783 105.304 111.955 105.624V105.823H108.263C108.091 105.456 107.962 105.003 107.876 104.464C107.79 103.917 107.748 103.362 107.748 102.8ZM108.205 98.0889L108.228 100.104H106.412C106.005 100.104 105.654 100.155 105.357 100.257C105.068 100.358 104.833 100.499 104.654 100.679C104.474 100.851 104.341 101.054 104.255 101.288C104.177 101.515 104.138 101.765 104.138 102.038C104.138 102.296 104.201 102.53 104.326 102.741C104.451 102.944 104.623 103.104 104.841 103.222C105.06 103.339 105.314 103.397 105.603 103.397C106.08 103.397 106.486 103.304 106.822 103.116C107.165 102.929 107.431 102.702 107.619 102.437C107.806 102.163 107.9 101.909 107.9 101.675L108.779 103.198C108.638 103.511 108.466 103.835 108.263 104.171C108.06 104.499 107.802 104.808 107.49 105.097C107.177 105.378 106.798 105.608 106.353 105.788C105.915 105.968 105.388 106.058 104.771 106.058C103.974 106.058 103.251 105.897 102.603 105.577C101.955 105.249 101.435 104.8 101.044 104.229C100.662 103.659 100.47 103.003 100.47 102.261C100.47 101.597 100.591 101.007 100.833 100.491C101.076 99.9756 101.439 99.5381 101.923 99.1787C102.415 98.8193 103.033 98.5498 103.775 98.3701C104.517 98.1826 105.384 98.0889 106.376 98.0889H108.205ZM117.498 96.0967V105.823H113.841V93.1436H117.275L117.498 96.0967ZM121.283 93.0498L121.224 96.46C121.068 96.4365 120.865 96.417 120.615 96.4014C120.365 96.3779 120.15 96.3662 119.97 96.3662C119.501 96.3662 119.095 96.4248 118.751 96.542C118.415 96.6514 118.134 96.8154 117.908 97.0342C117.689 97.2529 117.525 97.5264 117.415 97.8545C117.306 98.1748 117.251 98.5459 117.251 98.9678L116.56 98.6279C116.56 97.792 116.642 97.0264 116.806 96.3311C116.97 95.6357 117.208 95.0342 117.521 94.5264C117.833 94.0107 118.216 93.6123 118.669 93.3311C119.123 93.0498 119.638 92.9092 120.216 92.9092C120.404 92.9092 120.595 92.9209 120.79 92.9443C120.986 92.9678 121.15 93.0029 121.283 93.0498ZM126.369 95.8506V105.823H122.701V93.1436H126.146L126.369 95.8506ZM125.888 99.0381L124.974 99.0615C124.974 98.1084 125.091 97.2529 125.326 96.4951C125.56 95.7373 125.892 95.0928 126.322 94.5615C126.759 94.0225 127.279 93.6123 127.88 93.3311C128.49 93.0498 129.162 92.9092 129.896 92.9092C130.49 92.9092 131.033 92.9951 131.525 93.167C132.017 93.3389 132.439 93.6162 132.79 93.999C133.15 94.374 133.423 94.874 133.611 95.499C133.798 96.1162 133.892 96.8779 133.892 97.7842V105.823H130.212V97.7725C130.212 97.2412 130.138 96.8311 129.99 96.542C129.841 96.2529 129.623 96.0498 129.333 95.9326C129.052 95.8154 128.708 95.7568 128.302 95.7568C127.873 95.7568 127.505 95.8428 127.201 96.0146C126.896 96.1787 126.646 96.4092 126.451 96.7061C126.255 97.0029 126.111 97.3506 126.017 97.749C125.931 98.1475 125.888 98.5771 125.888 99.0381Z" fill="#1ABC5B"/>
<path d="M87.1928 123.851V133.823H83.5248V121.144H86.9702L87.1928 123.851ZM86.7123 127.038L85.7983 127.062C85.7983 126.108 85.9155 125.253 86.1498 124.495C86.3842 123.737 86.7163 123.093 87.1459 122.562C87.5834 122.022 88.103 121.612 88.7045 121.331C89.3139 121.05 89.9858 120.909 90.7202 120.909C91.3139 120.909 91.8569 120.995 92.3491 121.167C92.8413 121.339 93.2631 121.616 93.6147 121.999C93.9741 122.374 94.2475 122.874 94.435 123.499C94.6225 124.116 94.7163 124.878 94.7163 125.784V133.823H91.0366V125.772C91.0366 125.241 90.9623 124.831 90.8139 124.542C90.6655 124.253 90.4467 124.05 90.1577 123.933C89.8764 123.815 89.5327 123.757 89.1264 123.757C88.6967 123.757 88.3295 123.843 88.0248 124.015C87.7202 124.179 87.4702 124.409 87.2748 124.706C87.0795 125.003 86.935 125.351 86.8413 125.749C86.7553 126.147 86.7123 126.577 86.7123 127.038ZM103.083 134.058C102.076 134.058 101.173 133.897 100.376 133.577C99.5795 133.257 98.9038 132.815 98.3491 132.253C97.8022 131.683 97.3842 131.026 97.0952 130.284C96.8061 129.542 96.6616 128.749 96.6616 127.905V127.46C96.6616 126.515 96.7944 125.644 97.06 124.847C97.3256 124.05 97.7123 123.358 98.2202 122.772C98.7358 122.179 99.3686 121.722 100.119 121.401C100.869 121.073 101.724 120.909 102.685 120.909C103.583 120.909 104.384 121.058 105.087 121.354C105.79 121.644 106.384 122.062 106.869 122.608C107.353 123.147 107.72 123.8 107.97 124.565C108.228 125.323 108.357 126.175 108.357 127.12V128.62H98.1381V126.265H104.771V125.983C104.771 125.538 104.689 125.147 104.525 124.812C104.369 124.476 104.134 124.218 103.822 124.038C103.517 123.851 103.13 123.757 102.662 123.757C102.216 123.757 101.845 123.851 101.548 124.038C101.251 124.226 101.013 124.491 100.833 124.835C100.662 125.171 100.537 125.565 100.458 126.019C100.38 126.464 100.341 126.944 100.341 127.46V127.905C100.341 128.397 100.408 128.847 100.54 129.253C100.673 129.659 100.869 130.007 101.126 130.296C101.384 130.585 101.697 130.812 102.064 130.976C102.431 131.14 102.849 131.222 103.318 131.222C103.896 131.222 104.447 131.112 104.97 130.894C105.494 130.667 105.947 130.315 106.33 129.839L108.04 131.796C107.783 132.171 107.419 132.534 106.951 132.886C106.49 133.229 105.935 133.511 105.287 133.729C104.638 133.948 103.904 134.058 103.083 134.058ZM113.876 130.296L116.361 121.144H118.669L117.884 125.222L115.4 133.823H113.513L113.876 130.296ZM112.74 121.144L114.404 130.261L114.58 133.823H112.33L109.212 121.144H112.74ZM120.919 130.085L122.572 121.144H126.099L123.005 133.823H120.755L120.919 130.085ZM118.951 121.144L121.458 130.249L121.822 133.823H119.912L117.451 125.233L116.701 121.144H118.951Z" fill="#0C6AF8"/>
<path d="M76.5756 158.296L79.06 149.144H81.3686L80.5834 153.222L78.0991 161.823H76.2123L76.5756 158.296ZM75.4389 149.144L77.103 158.261L77.2788 161.823H75.0288L71.9116 149.144H75.4389ZM83.6186 158.085L85.2709 149.144H88.7983L85.7045 161.823H83.4545L83.6186 158.085ZM81.6498 149.144L84.1577 158.249L84.5209 161.823H82.6108L80.1498 153.233L79.3998 149.144H81.6498ZM89.8413 155.612V155.366C89.8413 154.437 89.9741 153.581 90.2397 152.8C90.5053 152.011 90.8959 151.327 91.4116 150.749C91.9272 150.171 92.56 149.722 93.31 149.401C94.06 149.073 94.9194 148.909 95.8881 148.909C96.8725 148.909 97.7397 149.073 98.4897 149.401C99.2475 149.722 99.8842 150.171 100.4 150.749C100.915 151.327 101.306 152.011 101.572 152.8C101.837 153.581 101.97 154.437 101.97 155.366V155.612C101.97 156.534 101.837 157.39 101.572 158.179C101.306 158.96 100.915 159.644 100.4 160.229C99.8842 160.808 99.2514 161.257 98.5014 161.577C97.7514 161.897 96.8881 162.058 95.9116 162.058C94.9428 162.058 94.0795 161.897 93.3217 161.577C92.5639 161.257 91.9272 160.808 91.4116 160.229C90.8959 159.644 90.5053 158.96 90.2397 158.179C89.9741 157.39 89.8413 156.534 89.8413 155.612ZM93.5092 155.366V155.612C93.5092 156.112 93.5483 156.581 93.6264 157.019C93.7123 157.456 93.8491 157.839 94.0366 158.167C94.2241 158.495 94.4702 158.753 94.7748 158.94C95.0873 159.12 95.4663 159.21 95.9116 159.21C96.3569 159.21 96.7319 159.12 97.0366 158.94C97.3413 158.753 97.5873 158.495 97.7748 158.167C97.9623 157.839 98.0952 157.456 98.1733 157.019C98.2592 156.581 98.3022 156.112 98.3022 155.612V155.366C98.3022 154.874 98.2592 154.413 98.1733 153.983C98.0952 153.546 97.9623 153.159 97.7748 152.823C97.5873 152.487 97.3373 152.226 97.0248 152.038C96.7202 151.851 96.3413 151.757 95.8881 151.757C95.4506 151.757 95.0795 151.851 94.7748 152.038C94.4702 152.226 94.2241 152.487 94.0366 152.823C93.8491 153.159 93.7123 153.546 93.6264 153.983C93.5483 154.413 93.5092 154.874 93.5092 155.366ZM107.56 152.097V161.823H103.904V149.144H107.337L107.56 152.097ZM111.345 149.05L111.287 152.46C111.13 152.437 110.927 152.417 110.677 152.401C110.427 152.378 110.212 152.366 110.033 152.366C109.564 152.366 109.158 152.425 108.814 152.542C108.478 152.651 108.197 152.815 107.97 153.034C107.751 153.253 107.587 153.526 107.478 153.854C107.369 154.175 107.314 154.546 107.314 154.968L106.623 154.628C106.623 153.792 106.705 153.026 106.869 152.331C107.033 151.636 107.271 151.034 107.583 150.526C107.896 150.011 108.279 149.612 108.732 149.331C109.185 149.05 109.701 148.909 110.279 148.909C110.466 148.909 110.658 148.921 110.853 148.944C111.048 148.968 111.212 149.003 111.345 149.05ZM119.994 158.987V143.823H123.673V161.823H120.369L119.994 158.987ZM112.095 155.636V155.39C112.095 154.429 112.201 153.554 112.412 152.765C112.63 151.968 112.947 151.284 113.361 150.714C113.783 150.136 114.302 149.69 114.919 149.378C115.537 149.065 116.244 148.909 117.04 148.909C117.775 148.909 118.415 149.073 118.962 149.401C119.509 149.722 119.974 150.175 120.357 150.761C120.748 151.339 121.064 152.022 121.306 152.812C121.548 153.593 121.732 154.44 121.857 155.354V155.776C121.74 156.651 121.556 157.468 121.306 158.226C121.064 158.983 120.748 159.651 120.357 160.229C119.974 160.8 119.505 161.249 118.951 161.577C118.404 161.897 117.759 162.058 117.017 162.058C116.22 162.058 115.513 161.897 114.896 161.577C114.287 161.257 113.775 160.808 113.361 160.229C112.947 159.651 112.63 158.972 112.412 158.19C112.201 157.409 112.095 156.558 112.095 155.636ZM115.751 155.39V155.636C115.751 156.136 115.787 156.601 115.857 157.03C115.935 157.46 116.06 157.839 116.232 158.167C116.404 158.495 116.63 158.753 116.912 158.94C117.193 159.12 117.537 159.21 117.943 159.21C118.49 159.21 118.939 159.085 119.29 158.835C119.642 158.577 119.908 158.222 120.087 157.769C120.267 157.315 120.361 156.788 120.369 156.187V154.956C120.369 154.456 120.318 154.007 120.216 153.608C120.115 153.21 119.962 152.874 119.759 152.601C119.564 152.327 119.318 152.12 119.021 151.979C118.724 151.831 118.373 151.757 117.966 151.757C117.568 151.757 117.228 151.851 116.947 152.038C116.665 152.218 116.435 152.472 116.255 152.8C116.083 153.128 115.955 153.515 115.869 153.96C115.79 154.397 115.751 154.874 115.751 155.39ZM132.861 158.296C132.861 158.062 132.787 157.854 132.638 157.675C132.498 157.495 132.24 157.331 131.865 157.183C131.498 157.034 130.978 156.886 130.306 156.737C129.673 156.604 129.083 156.433 128.537 156.222C127.99 156.003 127.513 155.741 127.107 155.437C126.701 155.124 126.384 154.757 126.158 154.335C125.931 153.905 125.818 153.417 125.818 152.87C125.818 152.339 125.931 151.835 126.158 151.358C126.392 150.882 126.728 150.46 127.165 150.093C127.611 149.726 128.15 149.437 128.783 149.226C129.423 149.015 130.15 148.909 130.962 148.909C132.08 148.909 133.044 149.085 133.857 149.437C134.669 149.78 135.294 150.265 135.732 150.89C136.169 151.507 136.388 152.214 136.388 153.011H132.732C132.732 152.683 132.669 152.397 132.544 152.155C132.419 151.913 132.228 151.726 131.97 151.593C131.712 151.452 131.373 151.382 130.951 151.382C130.623 151.382 130.333 151.44 130.083 151.558C129.841 151.667 129.65 151.819 129.509 152.015C129.376 152.21 129.31 152.437 129.31 152.694C129.31 152.874 129.349 153.038 129.427 153.187C129.513 153.327 129.642 153.46 129.814 153.585C129.994 153.702 130.224 153.808 130.505 153.901C130.794 153.995 131.146 154.085 131.56 154.171C132.443 154.335 133.248 154.565 133.974 154.862C134.708 155.159 135.294 155.569 135.732 156.093C136.177 156.616 136.4 157.308 136.4 158.167C136.4 158.729 136.271 159.245 136.013 159.714C135.763 160.183 135.4 160.593 134.923 160.944C134.447 161.296 133.876 161.569 133.212 161.765C132.548 161.96 131.798 162.058 130.962 162.058C129.767 162.058 128.755 161.843 127.927 161.413C127.099 160.983 126.474 160.444 126.052 159.796C125.638 159.14 125.431 158.468 125.431 157.78H128.865C128.88 158.202 128.986 158.546 129.181 158.812C129.384 159.077 129.646 159.272 129.966 159.397C130.287 159.515 130.646 159.573 131.044 159.573C131.443 159.573 131.775 159.519 132.04 159.409C132.306 159.3 132.509 159.151 132.65 158.964C132.79 158.769 132.861 158.546 132.861 158.296Z" fill="#F09223"/>
</svg>
